<svg width="20" height="20" viewBox="0 0 20 20" fill="none" xmlns="http://www.w3.org/2000/svg">
<path d="M16.7722 4.32775C17.0759 4.02401 17.0759 3.53155 16.7722 3.22781C16.4685 2.92406 15.976 2.92406 15.6723 3.22781L10 8.90006L4.32775 3.22781C4.02401 2.92406 3.53155 2.92406 3.22781 3.22781C2.92406 3.53155 2.92406 4.02401 3.22781 4.32775L8.90006 10L3.22781 15.6723C2.92406 15.976 2.92406 16.4685 3.22781 16.7722C3.53155 17.0759 4.02401 17.0759 4.32775 16.7722L10 11.0999L15.6723 16.7722C15.976 17.0759 16.4685 17.0759 16.7722 16.7722C17.0759 16.4685 17.0759 15.976 16.7722 15.6723L11.0999 10L16.7722 4.32775Z" fill="#FBFBFB"/>
</svg>
